<svg xmlns="http://www.w3.org/2000/svg" width="24" height="24" viewBox="0 0 24 24">
  <path d="M12 2.163c3.204 0 3.584.012 4.849.07 1.366.062 2.633.334 3.608 1.308.975.975 1.246 2.242 1.308 3.608.058 1.265.07 1.645.07 4.849s-.012 3.584-.07 4.849c-.062 1.366-.334 2.633-1.308 3.608-.975.975-2.242 1.246-3.608 1.308-1.265.058-1.645.07-4.849.07s-3.584-.012-4.849-.07c-1.366-.062-2.633-.334-3.608-1.308-.975-.975-1.246-2.242-1.308-3.608-.058-1.265-.07-1.645-.07-4.849s.012-3.584.07-4.849c.062-1.366.334-2.633 1.308-3.608.975-.975 2.242-1.246 3.608-1.308 1.265-.058 1.645-.07 4.849-.07zm0-2.163c-3.259 0-3.667.014-4.947.072-1.281.058-2.568.334-3.608 1.374-1.04 1.04-1.316 2.327-1.374 3.608-.058 1.28-.072 1.688-.072 4.947s.014 3.667.072 4.947c.058 1.281.334 2.568 1.374 3.608 1.04 1.04 2.327 1.316 3.608 1.374 1.28.058 1.688.072 4.947.072s3.667-.014 4.947-.072c1.281-.058 2.568-.334 3.608-1.374 1.04-1.04 1.316-2.327 1.374-3.608.058-1.28.072-1.688.072-4.947s-.014-3.667-.072-4.947c-.058-1.281-.334-2.568-1.374-3.608-1.04-1.04-2.327-1.316-3.608-1.374-1.28-.058-1.688-.072-4.947-.072z"/>
  <path d="M12 5.838c-3.403 0-6.162 2.759-6.162 6.162s2.759 6.162 6.162 6.162 6.162-2.759 6.162-6.162-2.759-6.162-6.162-6.162zm0 10.162c-2.209 0-4-1.791-4-4s1.791-4 4-4 4 1.791 4 4-1.791 4-4 4z"/>
  <circle cx="18.406" cy="5.594" r="1.44"/>
</svg>
