<svg xmlns="http://www.w3.org/2000/svg" width="24" height="24" viewBox="0 0 24 24">
  <path d="M22.225 0h-20.451c-.974 0-1.774.8-1.774 1.774v20.451c0 .974.8 1.774 1.774 1.774h20.451c.974 0 1.774-.8 1.774-1.774v-20.451c0-.974-.8-1.774-1.774-1.774zm-15.225 20.452h-3.5v-11.5h3.5v11.5zm-1.75-13.086c-1.121 0-2.031-.91-2.031-2.031s.91-2.031 2.031-2.031 2.031.91 2.031 2.031-.91 2.031-2.031 2.031zm13.75 13.086h-3.5v-5.604c0-1.338-.027-3.063-1.867-3.063-1.867 0-2.154 1.459-2.154 2.963v5.704h-3.5v-11.5h3.362v1.573h.048c.469-.888 1.614-1.823 3.323-1.823 3.556 0 4.188 2.34 4.188 5.38v6.37z"/>
</svg>
